<?xml version="1.0" encoding="UTF-8" standalone="no"?>
<!DOCTYPE svg PUBLIC "-//W3C//DTD SVG 1.1//EN" "http://www.w3.org/Graphics/SVG/1.1/DTD/svg11.dtd">
<svg width="100%" height="100%" viewBox="0 0 24 24" version="1.1" xmlns="http://www.w3.org/2000/svg" xmlns:xlink="http://www.w3.org/1999/xlink" xml:space="preserve" xmlns:serif="http://www.serif.com/" style="fill-rule:evenodd;clip-rule:evenodd;stroke-linecap:round;stroke-linejoin:round;">
    <path d="M24,3.6L24,20.4C24,22.387 22.387,24 20.4,24L3.6,24C1.613,24 0,22.387 0,20.4L0,3.6C0,1.613 1.613,0 3.6,0L20.4,0C22.387,0 24,1.613 24,3.6Z" style="fill:url(#_Linear1);"/>
    <g transform="matrix(0.732164,0,0,0.777674,3.30491,2.57704)">
        <path d="M19,2.279L19,21.721C19,22.427 18.391,23 17.642,23L6.358,23C5.609,23 5,22.427 5,21.721L5,2.279C5,1.573 5.609,1 6.358,1L17.642,1C18.391,1 19,1.573 19,2.279Z" style="fill:white;stroke:black;stroke-width:1px;"/>
    </g>
    <g transform="matrix(0.722116,0,0,0.712984,3.42548,2.08905)">
        <path d="M16.5,4.227L16.5,9.773C16.5,10.174 16.179,10.5 15.783,10.5L8.217,10.5C7.821,10.5 7.5,10.174 7.5,9.773L7.5,4.227C7.5,3.826 7.821,3.5 8.217,3.5L15.783,3.5C16.179,3.5 16.5,3.826 16.5,4.227Z" style="fill:rgb(233,233,233);stroke:black;stroke-width:1px;"/>
    </g>
    <g transform="matrix(0.812381,0,0,0.812381,2.34231,1.43942)">
        <circle cx="12" cy="17" r="4" style="fill:white;stroke:black;stroke-width:1px;"/>
    </g>
    <g transform="matrix(0.746773,0,0,0.746773,3.60807,3.46397)">
        <circle cx="11.413" cy="15.782" r="1.115" style="stroke:black;stroke-width:1.34px;stroke-miterlimit:1.5;"/>
    </g>
    <defs>
        <linearGradient id="_Linear1" x1="0" y1="0" x2="1" y2="0" gradientUnits="userSpaceOnUse" gradientTransform="matrix(-0.13105,21.2171,-21.2171,-0.13105,12.131,1.04735)"><stop offset="0" style="stop-color:rgb(240,241,247);stop-opacity:1"/><stop offset="1" style="stop-color:rgb(203,206,227);stop-opacity:1"/></linearGradient>
    </defs>
</svg>
